<?xml version="1.0" encoding="utf-8"?>
<!-- Generator: Adobe Illustrator 23.1.1, SVG Export Plug-In . SVG Version: 6.00 Build 0)  -->
<svg version="1.1" id="Layer_2" xmlns="http://www.w3.org/2000/svg" xmlns:xlink="http://www.w3.org/1999/xlink" x="0px" y="0px"
	 viewBox="0 0 1224 792" style="enable-background:new 0 0 1224 792;" xml:space="preserve">
<style type="text/css">
	.st0{fill:#231F20;}
</style>
<g>
	<path class="st0" d="M80.5,346.5h52.1c0,13.1,10.1,19.5,21.6,19.5c10.6,0,20.7-5.6,20.7-15.6c0-11.5-14.3-14.8-31.7-19.1
		c-26.5-6.6-60.3-14.7-60.3-56.5c0-36.1,26.5-56.8,69.8-56.8c44,0,69.2,22.6,69.2,59.9h-50.7c0-11.6-8.6-17-19.1-17
		c-9,0-17.6,3.9-17.6,12.5c0,10.4,13.8,13.9,31.1,18.2c27,7,62.3,16,62.3,57.9c0,40.1-30.8,60.8-73.4,60.8
		C109.5,410.2,80.5,386.4,80.5,346.5z"/>
	<path class="st0" d="M557.5,334.7V222.3h51.6v111.5c0,17.9,11.6,29.5,28.4,29.5c16.9,0,28.4-11.6,28.4-29.5V222.3h51.6v112.5
		c0,45.1-33.3,75.6-80.1,75.6C590.8,410.3,557.5,379.9,557.5,334.7z"/>
	<path class="st0" d="M888.7,267.8h-49.8v137.9h-50.7V267.8h-49.8v-45.5h150.4V267.8z"/>
	<path class="st0" d="M1068.2,222.3v183.4h-51v-70.4h-55v70.4h-51V222.3h51v66.2h55v-66.2H1068.2z"/>
	<path class="st0" d="M205.3,531.3c17.3,8.2,28.1,24.6,28.1,44.6c0,29.7-25.6,52.2-59.5,52.2H89.4V444.7h82.8
		c32.5,0,56.2,19.8,56.2,46.9C228.5,508,219.3,522.8,205.3,531.3L205.3,531.3z M183.4,569.9c0-9.7-7.2-16.6-18.1-16.6h-27.4v33.4
		h27.4C176.3,586.6,183.4,579.8,183.4,569.9z M180.5,500c0-9.5-6.5-16-17.1-16h-25.5V516h25.5C174,516,180.5,509.5,180.5,500
		L180.5,500z"/>
	<path class="st0" d="M878.4,444.7v183.4h-41.8l-72.9-99.5v99.5h-49V444.7H759l70.4,96.2v-96.2H878.4z"/>
	<path class="st0" d="M1082.8,536.2c0,53.5-39.3,91.8-94.7,91.8h-74.2V444.7h74.2C1043.6,444.7,1082.8,482.7,1082.8,536.2z
		 M1031,536.2c0-27.2-18.1-45.3-45.3-45.3h-21.1v90.9h21.1C1012.9,581.8,1031,563.3,1031,536.2z"/>
</g>
<path d="M294.5,485.9v29.8h383.7v40.9H294.5v33.8h383.7v40.6H253.9V445.3h424.3v40.6H294.5z M388.6,124.8c-76.2,0-138,61.8-138,138
	s61.8,138,138,138s138-61.8,138-138S464.8,124.8,388.6,124.8z"/>
</svg>
